<?xml version="1.0" encoding="UTF-8"?>
<svg id="Layer_1" data-name="Layer 1" xmlns="http://www.w3.org/2000/svg" viewBox="0 0 400 200">
  <path d="M208,.29c9.18,1.03,22.32,6.97,28.99,13.49-7.63,1.7-14.58-3.55-21.79-5.2-5.73-1.31-11.1-1.07-16.75-2.33l-26.45,3.02c4.8-4.36,15.7-8.27,22-8.98,3.42-.39,10.58-.39,14,0Z" fill="#b0b0b0"/>
  <path d="M238,200c1.66-3.89,1.54-9.1,0-12.97h9.99c-.04,1.66.67,2.14-1.26,1.77-4.3-.82-5.26-2.47-4.73,3.21l4.99-.99v3.99c-3.96-.81-4.49-2.48-5.99,2-.87.2-.95,1.62,0,1,3.26.85,3.81,1.82,6.99-1v3s-9.99,0-9.99,0Z" fill="#b0b0b0"/>
  <path d="M234,199c1-1,.53-4.28-1-3.99-3.36-2.46-5.08-8.32-10-7.98-.2,1.8,1.83,0,2.08,2.41.33,3.1.22,7.64-1.09,10.56h3l-.99-8.99,7.99,7.99Z" fill="#b0b0b0"/>
  <path d="M168,200c1.66-3.88,1.54-9.1,0-12.97,1.11.11,2.48-.22,3.49-.01.64.13-2.02,11.14.5,12.99h-4Z" fill="#b0b0b0"/>
  <path d="M217,200c1.66-3.88,1.54-9.1,0-12.97,1.11.11,2.48-.22,3.49-.01.64.13-2.02,11.14.5,12.99h-4Z" fill="#b0b0b0"/>
  <g>
    <path d="M165,187.03h-4c1.19,2.04.95,3.79,1,5.98,0,.33,0,.67,0,1-.04,2.08.25,4.13-1,5.99h4c-1.66-3.89-1.54-9.1,0-12.97Z" fill="#b0b0b0"/>
    <path d="M162,193.01h-5.01c-.37-.36.35-3.91,0-4.99-.98.6-1.96.37-3,0-.95,2.9,1.31,8.8-1,11.98h5l-1-5.99h5c.86-.48.9-.81,0-1Z" fill="#b0b0b0"/>
  </g>
  <path d="M188,188.02c1.04.37,2.02.6,3,0,.95,2.9-1.31,8.8,1,11.98h-5c2.31-3.18.05-9.08,1-11.98Z" fill="#b0b0b0"/>
  <path d="M233,195.01c-.31-2.62.64-5.38-1-7.98h4c-1.88,4.03-.71,8.65-1,12.97h-1v-1c.39-1.45-.88-3.02-1-3.99Z" fill="#b0b0b0"/>
  <path d="M184,200h-9c.29-.35.6-.79,1-1,.39-1.72.73-2.62,2-1,1.38-.25,4.86.99,6.99-1l-.99,3Z" fill="#b0b0b0"/>
  <path d="M257,199v1h-6c.09-8.72.33.44,6-1Z" fill="#b0b0b0"/>
  <path d="M254,40.22c-9.08,1.63-20.36,1.65-29.22-1.27-7.01-2.31-13.51-9.28-20.11-12.88-13.24-7.21-29-9.11-43.67-5.81l13.05,1.44c22.08,3.47,24.41,23.89,41.95,29.01,13.09,3.82,27.24-1.15,40-4.49,3.32,8.04-9.57,13.29-15.61,13.92-5.68.59-15.61-2.38-21.9-2.93-2.08-.18-11.1.42-11.5,0-.35-.37.36-3.65.01-4.01-.38-.4-9.22.3-11,.02l.99,3.98c-17.34,3.42-18.06-18.9-25.51-25.94-4.44-4.2-11.03-4.66-16.48-6.5,4.06-6.37,10.07-8.22,17.15-9.83,30.61-6.95,36.08,3.81,61.83,9.84,3.62.85,12.17,1.1,14.02,1.98s6.79,12.57,5.99,13.48Z" fill="#b0b0b0"/>
  <path d="M196.99,61.21l4,49.92c-13.97.88-29.76-6.09-39.54-15.92-1.68-1.69-8.75-10.8-9.44-12.55-.74-1.88.61-1.25,1.5-1.46,11.16-2.58,19.79-5.52,29.8-11.2,1.53-.87,13.16-9.41,13.69-8.79Z" fill="#b0b0b0"/>
  <path d="M250,81.18c-7.69,17.65-27.61,30.2-47,29.96l3.01-49.93,24.31,14.15c6.5,2,12.88,5.22,19.68,5.82Z" fill="#b0b0b0"/>
  <path d="M51,170.54c.79,4.61,5.41.42,4.99,4.49-4.47-1.07-8.49-.47-12.99,0-.67-3.41,2.62-1.13,4.52-2.96.59-.57,1.06-1.9,1.25-2.75.92-4.16.79-21.12.24-25.76-.2-1.67-.4-3.12-1.55-4.44-2.46-2.83-6.72-.44-6.46-4.02,3.48.3,7.51-.94,10.55.94l23.45,28.01v-25.46c0-2.13-7.05-.35-4.5-3.5h12.49c1.08,3.42-4.99,1.29-4.99,3.5v36.45l-27-30.96c.96,7.98-1.31,18.87,0,26.46Z" fill="#b0b0b0"/>
  <path d="M323,173.04c.63.61,4.97-1.55,3.99,1.99h-10.99c-.8-3.67,2.91-.87,4.12-2.57,1.61-2.27,1.3-28.28-.26-29.24l-3.85-1.12c2.19.44,8.52-.74,9.86.13,1.17.75,8.46,22.93,12.13,24.83,1.17-3.06,9.02-24.1,10.15-24.83,1.34-.86,7.67.32,9.86-.13l-3.85,1.12c-1.56.96-1.87,26.97-.26,29.24,1.2,1.7,4.92-1.1,4.12,2.57-4.98-.74-9-.74-13.99,0-1.08-3.41,5-1.28,5-3.49v-23.47l-5.18,9.31c-1.61,2.09-6.12,16.11-6.84,16.65-.87.66-2.51-.54-2.75-1.73l-11.23-23.23c.65,3.15-.86,23.13,0,23.97Z" fill="#b0b0b0"/>
  <path d="M250,173.04c.63.61,4.97-1.55,3.99,1.99-2.44-1.72-12.47.41-12.99,0-2.3-1.8,3.11-2.26,3.55-2.91.79-1.17.86-26.98.02-28.12-.91-1.23-3.59-.41-3.59-1.42l13.01-.49c.04,2.03-3.06.26-3.88,2.61-1.01,2.88.46,8.99-.12,12.36h15c-.47-2.86,1.07-12.18-.94-13.54-1.36-.92-4.2.53-4.06-1.44h14c.19,2.05-2.64.38-3.86,1.13-1.75,1.08-1.76,28.53,0,29.69,1.36.89,4.61-1.39,3.85,2.12-4.81-1.16-9.15-.55-13.99,0-.78-3.74,3.84-.61,4.86-3.62s-.44-8.93.13-12.35h-15c.37,2.12-.5,13.49,0,13.98Z" fill="#b0b0b0"/>
  <path d="M172,59.19c-8.52.4-14.16,5.35-18.22-5.26-2.83-7.4,5.14-18.94.22-27.68,6.36,1.11,13.1,9.18,13.09,15.46-.01,8.01-3.3,10.64,4.91,17.47Z" fill="#b0b0b0"/>
  <path d="M232.99,135.09l1,12.98c-1.98-1.32-2.32-4.35-3.99-6.48-5.59-7.11-16.97-6.28-21.2,1.79-9.46,18.07,6.18,40.93,23.71,23.67,1.04,3.22-5.85,7.41-9.07,7.92-30.98,4.86-32.46-42.99-.02-39.8,3.77.37,5.91,3.74,9.57-.08Z" fill="#b0b0b0"/>
  <path d="M257,199c1.16-4.41-5.03-4.88-5.85-7.67-1.44-4.86,3.2-4.6,6.86-4.31v2.99c-1.16-1.64-6.04-2.94-5.98-.5.03,1.56,11.61,5.98,4.98,9.49Z" fill="#b0b0b0"/>
  <path d="M146.01,66.19c.06-2.48-.11-5,0-7.5.05-1.21-.75-3.71.99-3.48.13,3.24,1.74,6.22,3.99,8.48l-4.98,2.49Z" fill="#b0b0b0"/>
  <path d="M176,199c-.23-4,.82-8.25-1-11.97h4c-1.73,3.41-.83,7.29-1,10.97-.11.02-1.64.81-2,1Z" fill="#b0b0b0"/>
  <path d="M148.01,39.23l4.98-10.98c.16,3.74-1.95,8.62-4.98,10.98Z" fill="#b0b0b0"/>
  <path d="M191,188.02l-1.5,10.99-1.5-10.99c.51-1.57,2.49-1.57,3,0Z" fill="#b0b0b0"/>
  <path d="M157,188.02l-1.5,10.99-1.5-10.99c.51-1.57,2.5-1.58,3,0Z" fill="#b0b0b0"/>
  <path d="M255.99,62.2v3.98c-5.54-.53-5.54-3.45,0-3.98Z" fill="#b0b0b0"/>
  <path d="M241,197v1c-.05-.01-.74,1.93-1,.5l.02-10.48.99,8.98Z" fill="#b0b0b0"/>
  <path d="M206,187.03c1.57,4.06,2.01,9.56-1,12.97h5c-3.86-8.42,2.15-4.87,3.57-6.92,3.6-5.2-3.44-6.91-7.57-6.05ZM211.99,193.01h-2.99s0-4.98,0-4.98c3.06-.27,3.26,2.52,2.99,4.98Z" fill="#b0b0b0"/>
  <path d="M142,187.03c1.54,3.87,1.66,9.09,0,12.97h4c-4.65-9.47,4.68-3.58,5.07-8.51.4-5.02-5.47-4.81-9.07-4.47ZM145.01,193.01c-.27-.26-1.23-6.37,2.49-4.98,4,1.5-.46,6.99-2.49,4.98Z" fill="#b0b0b0"/>
  <path d="M195,187.01l-1,12.99h4c-4.65-9.47,4.68-3.58,5.07-8.51.36-4.57-4.61-4.91-8.07-4.48ZM197.01,193.01c-.27-.26-1.23-6.37,2.49-4.98,4,1.5-.46,6.99-2.49,4.98Z" fill="#b0b0b0"/>
  <path d="M150.49,169.05c-1.07-2.14-7.74-9.11-6.46-10.95.64-.92,6.79-.75,7.05-7.56.12-3.25-3.62-7.82-6.58-8.46-4.93-1.07-13.14.78-18.5,0-.2,1.9,2.59.59,3.58,1.92.84,1.14.77,26.95-.02,28.12-.44.65-5.85,1.11-3.55,2.91.52.4,10.65-1.47,12.99,0,.69-3.2-2.17-1.77-4-1.99v-13.98c6.57-.08,8.97,11.22,13.44,14.04,2.32,1.47,6.79,1.62,9.56,1.93l-7.5-5.98ZM135,158.06v-13.98c14.44-2.56,13.3,14.47,0,13.98Z" fill="#b0b0b0"/>
  <path d="M181.5,142.08c-5.97-.99-14.24.73-20.5,0v.99c1.06-.14,4,.56,4,1.51v28.46c-1.77,0-5.52-.8-3.49,2.01,6.7-1.95,14-.08,20.54-1.45,15.51-3.26,14.63-28.99-.56-31.51ZM170,172.04v-27.96c24.48-4.89,23.81,34.11,0,27.96Z" fill="#b0b0b0"/>
  <path d="M101.74,141.33c-19.03,3.11-17.44,37.93,6.53,33.47,18.82-3.5,14.95-36.98-6.53-33.47ZM107.48,173.01c-17.46,3.43-16.82-27.23-5.77-29.72,17.21-3.87,16.49,27.62,5.77,29.72Z" fill="#b0b0b0"/>
  <path d="M307.75,170.79l-11.76-29.71c-2.28-.41-1.59.13-2.22,1.28-4.31,7.84-6.8,18.87-11.22,26.73-1.78,3.18-4.23,3.07-4.55,5.94,3.61-1.08,6.38-.43,9.99,0l-3.99-3.52c.86-7.42,8.1-10.8,14.76-7.71,1.89.88,4.53,6.08,4.18,7.69-.35,1.6-3.92.72-2.94,3.55,4.34-.83,7.65-.83,11.99,0l-4.25-4.24ZM288,162.05l5.01-12.97c1.19-.89,5.68,11.44,5.98,12.97h-10.99Z" fill="#b0b0b0"/>
</svg>